<svg width="691" height="421" viewBox="0 0 691 421" fill="none" xmlns="http://www.w3.org/2000/svg">
    <path d="M161.269 421C133.205 421 109.094 417.036 88.9354 409.107C68.7767 400.782 51.9778 389.286 38.5387 374.619C25.4948 359.951 15.8107 342.707 9.48644 322.886C3.16215 303.065 0 281.261 0 257.476V0H75.2986V250.34C75.2986 268.972 77.2749 285.027 81.2276 298.506C85.5756 311.588 91.5046 322.291 99.0147 330.616C106.92 338.941 116.011 345.085 126.288 349.049C136.96 353.014 148.819 354.996 161.862 354.996C174.906 354.996 186.764 353.014 197.437 349.049C208.109 345.085 217.2 338.941 224.71 330.616C232.615 322.291 238.544 311.588 242.497 298.506C246.845 285.027 249.019 268.972 249.019 250.34V0H324.318V257.476C324.318 281.261 320.958 303.065 314.238 322.886C307.914 342.707 298.032 359.951 284.593 374.619C271.549 389.286 254.75 400.782 234.196 409.107C213.643 417.036 189.334 421 161.269 421Z" fill="white"/>
    <path d="M684.478 55.3008C671.434 69.572 655.624 88.2038 637.046 111.196C618.468 133.792 599.298 158.569 579.534 185.525C559.771 212.086 540.205 239.637 520.837 268.179C501.864 296.325 485.065 323.084 470.44 348.455H691V412.081H380.319V365.105C388.224 350.437 397.316 334.58 407.593 317.534C418.265 300.091 429.53 282.252 441.388 264.017C453.246 245.782 465.499 227.348 478.148 208.716C491.192 190.084 504.038 172.245 516.687 155.199C529.335 137.757 541.589 121.305 553.447 105.845C565.7 89.9878 577.163 75.9148 587.835 63.6257H390.398V0H684.478V55.3008Z" fill="white"/>
</svg>